<?xml version="1.0" encoding="utf-8"?>
<!-- Generator: Adobe Illustrator 22.0.0, SVG Export Plug-In . SVG Version: 6.00 Build 0)  -->
<svg version="1.1" xmlns="http://www.w3.org/2000/svg" xmlns:xlink="http://www.w3.org/1999/xlink" x="0px" y="0px"
	 viewBox="0 0 4800 1200" style="enable-background:new 0 0 10000 1200;" xml:space="preserve">
<g id="Layer_1">
</g>
<g id="Layer_2">
	<rect x="2421.9" y="562.4" width="65.6" height="217.6" fill="gold"/>
	<rect x="2604.7" y="483.4" width="65.8" height="328.1" fill="gold"/>
	<polygon points="2121.5,811.5 2187.6,811.5 2187.6,562.4 2121.5,563.3 	" fill="gold"/>
	<polygon points="2121.5,811.5 2126.6,748.2 2670.5,748.2 2670.5,811.5 	" fill="gold"/>
	<rect x="2421.8" y="811.5" width="65.8" height="100.7" fill="gold"/>
	
		<rect x="2365.3" y="820.9" transform="matrix(-1.836970e-16 1 -1 -1.836970e-16 3308.4392 -1483.9836)" width="61.9" height="182.7" fill="gold"/>
	
		<rect x="2123.6" y="878.5" transform="matrix(-1.836970e-16 1 -1 -1.836970e-16 3066.8157 -1242.3601)" width="61.9" height="67.4" fill="gold"/>
	<polygon points="2624,527.2 2670.5,483.4 2422.6,250.4 2419.6,335.8 	" fill="gold"/>
	<polygon points="2441.1,606.1 2487.4,562.4 2303,389.1 2304.8,478 	" fill="gold"/>
	<polygon points="2304.8,478 2303,389.1 2121.5,563.2 2167,607.6 	" fill="gold"/>
	<polyline points="2295.2,396.6 2295.2,477.9 2310.5,477.9 2310.5,396.2 	" fill="gold"/>


</g>


</svg>
