<style>@keyframes slideIn{0%{transform:translate(0,0)}30%,70%{transform:translate(-17px,0)}}#prefix__check g{animation:slideIn 6s ease forwards infinite;animation-delay:calc(var(--order)*400ms)}</style><svg width="420" height="500" viewBox="0 0 111.125 132.292" version="1.1" id="prefix__svg5" xmlns:xlink="http://www.w3.org/1999/xlink" xmlns="http://www.w3.org/2000/svg"><defs id="prefix__defs2"><linearGradient id="prefix__linearGradient54241"><stop offset="0" id="prefix__stop54237" stop-color="#e3dbe2" stop-opacity="1"/><stop offset="1" id="prefix__stop54239" stop-color="#e3dbe2" stop-opacity="0"/></linearGradient><linearGradient xlink:href="#prefix__linearGradient54241" id="prefix__linearGradient54247" x1="37.573" y1="88.462" x2="149.212" y2="88.462" gradientUnits="userSpaceOnUse" gradientTransform="matrix(.98529 0 0 1.00001 -36.362 -22.561)"/><path id="prefix__rect26698" d="M299.265 97.563h175.647v52.562H299.265z"/></defs><g id="prefix__layer1"><path id="prefix__rect4164" d="M15.29.642h80.732a14.47 14.47 0 0114.502 14.503V116.66a14.47 14.47 0 01-14.502 14.502H15.29A14.47 14.47 0 01.788 116.66V15.145A14.47 14.47 0 0115.29.642z" fill="url(#prefix__linearGradient54247)" fill-opacity="1" stroke="#221c24" stroke-width=".265"/><path id="prefix__rect4266" d="M11.81 12.825h23.204v28.424H11.81z" fill="#c4b7c8" stroke="#221c24" stroke-width=".265"/><path id="prefix__rect9909" d="M100.93 59.476h1.588a3 3 45 013 3v.973a3 3 135 01-3 3h-1.588a3 3 45 01-3-3v-.973a3 3 135 013-3z" fill="#fff" stroke="#221c24" stroke-width=".265"/><path id="prefix__rect9909-2" d="M100.93 69.73h1.588a3 3 45 013 3v.973a3 3 135 01-3 3h-1.588a3 3 45 01-3-3v-.973a3 3 135 013-3z" fill="#fff" stroke="#221c24" stroke-width=".265"/><path id="prefix__rect9909-9" d="M100.93 79.83h1.588a3 3 45 013 3v.974a3 3 135 01-3 3h-1.588a3 3 45 01-3-3v-.973a3 3 135 013-3z" fill="#fff" stroke="#221c24" stroke-width=".265"/><path id="prefix__rect9909-3" d="M100.93 90.444h1.588a3 3 45 013 3v.973a3 3 135 01-3 3h-1.588a3 3 45 01-3-3v-.973a3 3 135 013-3z" fill="#fff" stroke="#221c24" stroke-width=".265"/><path d="M43.715 18.473c3.007.157 6.49-2.363 8.846-.065 3.184 3.106 6.074-3.441 11.457-.435 1.153.815 4.116 1.56 6.236 1.41 1.916.471 2.56-1.456 5.368-2.202 1.89.257 3.942.953 6.383 2.128 2.101.537 3.663-1.485 6.733-2.148 2.09.232 5.15 1.877 7.18 2.611 1.044.378 2.01.247 4.211-2.123 1.799-1.937 4.902 1.47 5.262 1.83" id="prefix__path10702" fill="none" stroke="#000" stroke-width=".265" stroke-linecap="butt" stroke-linejoin="miter" stroke-opacity="1"/><path d="M43.578 25.566c3.007.156 6.49-2.363 8.846-.065 3.184 3.105 6.074-3.442 11.457-.435 1.153.815 4.116 1.56 6.236 1.409 1.916.472 2.56-1.456 5.368-2.202 1.89.257 3.942.953 6.383 2.129 2.1.537 3.663-1.486 6.733-2.149 2.09.232 5.15 1.877 7.18 2.612 1.044.378 2.01.246 4.21-2.124 1.8-1.937 4.903 1.471 5.263 1.831" id="prefix__path10702-2" fill="none" stroke="#000" stroke-width=".265" stroke-linecap="butt" stroke-linejoin="miter" stroke-opacity="1"/><path d="M43.578 32.672c3.007.156 6.49-2.363 8.846-.065 3.184 3.105 6.074-3.442 11.457-.435 1.153.815 4.116 1.56 6.236 1.409 1.916.472 2.56-1.456 5.368-2.202 1.89.257 3.942.953 6.383 2.129 2.1.537 3.663-1.486 6.733-2.149 2.09.232 5.15 1.877 7.18 2.612 1.044.378 2.01.246 4.21-2.124 1.8-1.937 4.903 1.471 5.263 1.831" id="prefix__path10702-1" fill="none" stroke="#000" stroke-width=".265" stroke-linecap="butt" stroke-linejoin="miter" stroke-opacity="1"/><path d="M10.944 94.32c3.998.155 8.627-2.344 11.758-.065 4.232 3.08 8.074-3.413 15.228-.431 1.533.808 5.471 1.548 8.29 1.398 2.545.468 3.4-1.444 7.133-2.184 2.513.255 5.24.945 8.485 2.111 2.792.533 4.868-1.474 8.949-2.13 2.778.23 6.843 1.86 9.543 2.59 1.387.374 2.67.244 5.597-2.107 2.39-1.921 6.515 1.46 6.993 1.816" id="prefix__path10702-5" fill="none" stroke="#000" stroke-width=".304" stroke-linecap="butt" stroke-linejoin="miter" stroke-opacity="1"/><path d="M10.652 82.835c3.997.155 8.626-2.344 11.758-.065 4.231 3.08 8.073-3.414 15.227-.431 1.533.808 5.472 1.548 8.29 1.397 2.545.468 3.401-1.444 7.134-2.183 2.512.255 5.24.945 8.484 2.11 2.792.534 4.869-1.473 8.95-2.13 2.777.23 6.843 1.861 9.542 2.59 1.387.375 2.671.245 5.597-2.106 2.391-1.922 6.515 1.459 6.994 1.816" id="prefix__path10702-5-7" fill="none" stroke="#000" stroke-width=".304" stroke-linecap="butt" stroke-linejoin="miter" stroke-opacity="1"/><path d="M11.882 73.196c3.998.155 8.627-2.345 11.758-.065 4.232 3.08 8.074-3.414 15.228-.432 1.533.809 5.471 1.549 8.29 1.398 2.545.468 3.4-1.444 7.133-2.184 2.513.255 5.24.946 8.485 2.112 2.792.532 4.868-1.474 8.949-2.131 2.778.23 6.843 1.861 9.543 2.59 1.387.375 2.67.245 5.597-2.106 2.391-1.922 6.515 1.459 6.993 1.816" id="prefix__path10702-5-3" fill="none" stroke="#000" stroke-width=".304" stroke-linecap="butt" stroke-linejoin="miter" stroke-opacity="1"/><path d="M11.677 62.941c3.998.155 8.627-2.344 11.758-.064 4.232 3.08 8.074-3.414 15.228-.432 1.533.808 5.471 1.548 8.29 1.398 2.545.468 3.4-1.444 7.133-2.184 2.513.255 5.24.945 8.485 2.111 2.792.533 4.868-1.473 8.948-2.13 2.779.23 6.844 1.86 9.544 2.59 1.387.374 2.67.244 5.597-2.107 2.39-1.921 6.515 1.46 6.993 1.816" id="prefix__path10702-5-9" fill="none" stroke="#000" stroke-width=".304" stroke-linecap="butt" stroke-linejoin="miter" stroke-opacity="1"/><path d="M65.806 117.106h26.252" id="prefix__path14504" fill="none" stroke="#000" stroke-width=".265" stroke-linecap="butt" stroke-linejoin="miter" stroke-opacity="1"/><g id="prefix__check"><g id="prefix__check1" style="--order:1"><path d="M116.824 60.958l-1.13 1.777 4.014 3.45 5.322-8.015-1.308-1.115-4.163 6.063z" id="prefix__path23120" fill="#ff0" stroke="#000" stroke-width=".042" stroke-linecap="butt" stroke-linejoin="miter" stroke-opacity="1"/></g><g id="prefix__check2" style="--order:2"><path d="M116.824 70.918l-1.13 1.777 4.014 3.45 5.322-8.014-1.308-1.116-4.163 6.064z" id="prefix__path23120-4" fill="#ff0" stroke="#000" stroke-width=".042" stroke-linecap="butt" stroke-linejoin="miter" stroke-opacity="1"/></g><g id="prefix__check1" style="--order:3"><path d="M116.787 80.654l-1.13 1.777 4.015 3.45 5.322-8.015-1.308-1.115-4.163 6.063z" id="prefix__path23120-3" fill="#ff0" stroke="#000" stroke-width=".042" stroke-linecap="butt" stroke-linejoin="miter" stroke-opacity="1"/></g><g id="prefix__check3" style="--order:4"><path d="M116.48 91.127l-1.13 1.777 4.014 3.45 5.322-8.015-1.308-1.115-4.163 6.063z" id="prefix__path23120-9" fill="#ff0" stroke="#000" stroke-width=".042" stroke-linecap="butt" stroke-linejoin="miter" stroke-opacity="1"/></g><g id="prefix__check5" style="--order:5"><g><g><path d="M115.88 110.306c.266 2.563 2.529 3.555 4.93 2.9.02-.005 1.87-1.117 2.611-.87 1.177.392.79 1.99 2.03 2.61 1.352.676 2.875-1.055 4.06-1.45 1.717-.572 4.005.277 5.802 0 .88-.135 1.846-1.039 2.61-.58.415.249.746.621 1.16.87.487.292 4.085 0 4.64 0" id="prefix__path54083" fill="none" stroke="red" stroke-width=".265" stroke-linecap="butt" stroke-linejoin="miter" stroke-opacity="1"/></g></g></g></g></g></svg>