<?xml version="1.0" encoding="utf-8"?>
<!-- Generator: Adobe Illustrator 22.0.0, SVG Export Plug-In . SVG Version: 6.00 Build 0)  -->
<svg version="1.1" id="Layer_1" xmlns="http://www.w3.org/2000/svg" xmlns:xlink="http://www.w3.org/1999/xlink" x="0px" y="0px"
	 viewBox="0 0 841.9 595.3" style="enable-background:new 0 0 841.9 595.3;" xml:space="preserve">
<style type="text/css">
	.st0{font-family:'Swiss721BT-BlackCondensed';}
	.st1{font-size:57.2422px;}
	.st2{fill:#414042;}
	.st3{font-size:27.072px;}
</style>
<text transform="matrix(1.0738 0 0 1 513.4258 285.229)"><tspan x="0" y="0" class="st0 st1">Rahro</tspan><tspan x="0" y="63.6" class="st0 st1">Group</tspan></text>
<text transform="matrix(0.973 0 0 1 427.6123 394.0078)" class="st2 st0 st3">Engineering &amp; Maintenance</text>
<rect x="704.9" y="325.8" transform="matrix(-1.836970e-16 1 -1 -1.836970e-16 1054.78 -378.0654)" width="23.1" height="25"/>
<rect x="392.6" y="257.5" width="25.1" height="84.9"/>
<polygon points="462.5,353.9 487.7,354.7 487.7,226.7 462.5,226.7 "/>
<polygon points="277.6,354.7 302.9,342.4 302.9,257.5 277.6,257.8 "/>
<polygon points="277.6,354.7 282.2,330 486.8,330 487.7,354.7 "/>
<polygon points="392.5,394 417.7,406.1 417.7,349.9 392.5,349.9 "/>
<polygon points="347.8,381.9 347.8,406.1 417.7,406.1 416.2,381.9 "/>
<rect x="278.2" y="381.1" transform="matrix(-1.836970e-16 1 -1 -1.836970e-16 684.278 103.746)" width="24.2" height="25.8"/>
<polygon points="469.9,243.7 487.7,226.7 392.9,135.7 391.7,169.1 "/>
<polygon points="399.9,274.5 417.7,257.5 347.1,189.9 347.8,224.5 "/>
<polygon points="347.8,224.5 347.1,189.9 277.6,257.8 295,275.1 "/>
<polyline points="344.1,192.8 344.1,224.5 349.9,224.5 349.9,192.6 "/>
</svg>
